<?xml version="1.0" standalone="no"?><!DOCTYPE svg PUBLIC "-//W3C//DTD SVG 1.1//EN" "http://www.w3.org/Graphics/SVG/1.1/DTD/svg11.dtd"><svg t="1573129026907" class="icon" viewBox="0 0 1031 1024" version="1.1" xmlns="http://www.w3.org/2000/svg" p-id="1151" width="16.109375" height="16" xmlns:xlink="http://www.w3.org/1999/xlink"><defs><style type="text/css">html, * { user-select: text !important; }
html, * { user-select: text !important; }
</style></defs><path d="M515.067 170.021c104.48 0 208.956-0.057 313.435 0.026 54.642 0.039 82.886 27.506 82.975 82.084 0.284 172.614 0.319 345.232-0.018 517.842-0.106 55.485-27.117 81.41-82.985 81.422-209.709 0.049-419.423 0.049-629.135-0.005-55.637-0.013-82.594-26.305-82.671-81.755-0.237-172.614-0.237-345.227 0-517.842 0.077-55.421 27.065-81.711 82.695-81.751 105.234-0.075 210.468-0.022 315.7-0.022zM175.632 441.447c-0.77 3.849-2.098 7.412-2.101 10.974-0.124 106.685 0.201 213.367-0.397 320.049-0.122 21.62 12.706 22.219 28.213 22.214 208.073-0.084 416.141-0.013 624.214-0.102 26.855-0.007 29.193-2.645 29.202-30.342 0.045-99.875 0.018-199.749 0.018-299.623v-23.168l-679.149-0.001zM173.418 379.397h679.307c0.954-3.257 1.722-4.665 1.726-6.076 0.159-37.822 0.283-75.65 0.315-113.473 0.027-32.207-0.697-32.992-32.953-32.996-205.024-0.036-410.048-0.018-615.073-0.013-4.537 0-9.076 0.049-13.614 0.129-12.592 0.226-19.794 5.737-19.754 19.235 0.128 43.775 0.046 87.552 0.046 133.194z" fill="#d4237a" p-id="1152"></path><path d="M321.111 638.633c19.301 9.179 34.828 16.327 50.133 23.918 13.314 6.603 19.863 17.604 13.521 31.615-6.591 14.561-18.978 18.528-34.010 11.661-33.666-15.369-67.698-30.019-100.705-46.688-7.419-3.749-15.908-14.836-15.529-22.105 0.449-8.555 8.167-20.577 15.953-24.22 33.477-15.68 67.953-29.303 102.455-42.677 14.304-5.546 27.823-1.894 34.021 13.298 6.236 15.275-1.246 26.668-15.161 33.306-15.427 7.361-31.377 13.617-50.677 21.891zM721.511 636.978c-20.235-8.469-35.645-14.531-50.702-21.35-13.465-6.099-19.925-17.072-14.731-31.292 5.555-15.209 18.247-20.462 33.071-14.615 35.725 14.086 71.489 28.247 106.299 44.397 19.017 8.821 19.703 31.456 0.94 41.195-35.401 18.368-71.728 35.249-108.833 49.789-7.282 2.858-25.051-5.28-28.4-12.676-3.248-7.17 2.879-23.847 10.174-29.389 13.93-10.59 31.615-16.237 52.178-26.061zM571.897 532.532c-2.375 10.294-3.061 14.819-4.464 19.104-16.238 49.526-32.597 99.019-48.892 148.523-5.456 16.571-14.409 30.561-34.126 23.985-19.653-6.553-18.235-22.507-12.611-39.375 16.711-50.13 32.708-100.496 49.069-150.742 4.783-14.687 14.647-24.961 30.267-19.806 8.869 2.928 15.296 13.238 20.759 18.308zM280.96 337.287c-19.806-0.182-35.62-16.818-34.833-36.634 0.738-18.578 17.047-34.402 35.341-34.295 19.189 0.107 35.536 17.492 34.852 37.063-0.663 18.97-16.394 34.039-35.361 33.866zM382.644 337.269c-19.783-0.502-35.239-17.346-34.208-37.286 0.954-18.463 17.827-34.237 35.978-33.631 19.299 0.643 35.276 18.246 34.212 37.694-1.034 18.847-17.118 33.697-35.979 33.223zM520.736 303.226c-0.564 18.969-16.207 34.118-35.169 34.057-19.84-0.067-35.708-16.573-35.023-36.439 0.639-18.574 16.838-34.474 35.15-34.492 19.186-0.022 35.618 17.271 35.043 36.875z" fill="#d4237a" p-id="1153"></path></svg>